<svg xmlns:xlink="http://www.w3.org/1999/xlink" xmlns="http://www.w3.org/2000/svg" version="1.1" viewBox="0 0 358 69" height="69px" width="358px"><title>a</title><desc>Created with Sketch.</desc><g fill-rule="evenodd" fill="none" stroke-width="1" stroke="none" id="Page-1"><g fill-rule="nonzero" fill="#FF5A61" transform="translate(-471.000000, -277.000000)" id="Footer"><g transform="translate(471.000000, 277.000000)" id="logo"><path id="a" d="M35.6758332,10.2014195 L35.6758332,58.7934437 L46.1046253,58.7934437 C61.3753566,58.7934437 72.0524532,48.8138444 72.0524532,34.4974316 C72.0524532,20.2056597 61.3753566,10.2014195 46.1046253,10.2014195 L35.6758332,10.2014195 Z M72.0524532,10.3739064 C78.7164235,16.6424524 82.4423792,25.3861152 82.3322626,34.4974316 C82.3322626,43.8610063 78.6821853,52.4360694 72.0524532,58.6209568 C64.9585286,64.9999763 55.6757663,68.4467364 46.1046253,68.2555823 L25.5946675,68.2555823 L25.5946675,0.739280852 L46.1046253,0.739280852 C56.185791,0.739280852 65.3978907,4.1643779 72.0524532,10.3739064 Z M92.4879196,5.12733713e-05 C94.2525056,-0.00689616932 95.9453927,0.692439557 97.183772,1.93991913 C98.4221513,3.18739871 99.1014252,4.87765594 99.0679908,6.62847649 C99.1204764,8.46114362 98.3792478,10.228312 97.0318933,11.4827507 L96.8084192,11.6798786 L88.16742,11.6798786 L87.9191155,11.4827507 C86.5914749,10.2167691 85.8615503,8.45506643 85.9078484,6.62847649 C85.8744141,4.87765594 86.5536879,3.18739871 87.7920672,1.93991913 C89.0304465,0.692439557 90.7233336,-0.00689616932 92.4879196,5.12733712e-05 Z M87.6708109,20.2549417 L97.2801979,20.2549417 L97.2801979,68.2555823 L87.6708109,68.2555823 L87.6708109,20.2549417 Z M159.654307,29.0517737 L146.667978,29.0517737 L146.667978,68.2555823 L137.03376,68.2555823 L137.03376,29.0517737 L118.882696,29.0517737 L118.882696,68.2555823 L109.273309,68.2555823 L109.273309,29.0517737 L101.228241,29.0517737 L101.228241,20.2549417 L108.106277,20.2549417 C106.494506,18.1223116 105.623232,15.5284336 105.623232,12.8626459 C105.623232,5.71676001 111.557711,0.739280852 120.074558,0.739280852 L131.893855,0.739280852 L131.893855,9.56075382 L121.365742,9.56075382 C119.478627,9.56075382 115.058805,10.0535735 115.058805,14.6121559 C115.058805,18.2590219 118.01363,20.0824548 120.769811,20.2549417 L135.891559,20.2549417 C134.262797,18.1296659 133.381771,15.5327261 133.383683,12.8626459 C133.383683,5.71676001 139.342993,0.739280852 147.835009,0.739280852 L159.654307,0.739280852 L159.654307,9.56075382 L149.151023,9.56075382 C147.239078,9.56075382 142.819257,10.0535735 142.819257,14.6121559 C142.819257,18.2590219 145.774081,20.0824548 148.530262,20.2549417 L159.654307,20.2549417 L159.654307,29.0517737 Z M203.604216,46.9904115 L165.737769,46.9904115 C166.636747,54.4166791 173.024793,59.9808231 180.561552,59.9022881 C185.453152,59.9022881 190.24543,57.9556502 193.647203,54.5551942 L194.243134,53.9884515 L200.425918,60.6907997 L199.929309,61.2329014 C195.186691,66.1610985 188.110011,68.9948119 180.561552,68.9948119 C173.917518,69.1314114 167.506237,66.5655333 162.816577,61.8930422 C158.126916,57.2205511 155.566923,50.8479996 155.731094,44.255262 C155.731094,30.3823869 166.408191,19.5157121 179.990451,19.5157121 C194.143812,19.5157121 203.405573,29.9881312 203.604216,46.2018999 L203.604216,46.9904115 Z M179.543503,28.4111081 C173.349789,28.4184402 167.919031,32.5183513 166.259208,38.4399893 L192.802967,38.4399893 C191.486953,32.2304609 186.396709,28.3125441 179.543503,28.4111081 Z M232.05992,29.8649262 C230.666355,29.5020018 229.229701,29.3279348 227.789082,29.3474655 C223.111703,29.141833 218.785333,31.8019539 216.888511,36.0498137 L216.888511,68.2555823 L207.254293,68.2555823 L207.254293,20.2549417 L216.888511,20.2549417 L216.888511,24.4685503 C220.115823,21.3499081 224.478106,19.6609774 228.980944,19.786763 C230.172806,19.786763 231.339837,19.8853269 232.407547,20.0824548 L233.053139,20.1810188 L233.053139,30.1606181 L232.05992,29.8649262 Z M279.908212,46.9904115 L242.041764,46.9904115 C242.940743,54.4166791 249.328789,59.9808231 256.865547,59.9022881 C261.766508,59.8980928 266.468249,57.9768545 269.951198,54.5551942 L270.522299,53.9884515 L276.729913,60.6907997 L276.208474,61.2329014 C271.465856,66.1610985 264.414006,68.9948119 256.865547,68.9948119 C250.221514,69.1314114 243.810233,66.5655333 239.120572,61.8930422 C234.430912,57.2205511 231.870918,50.8479996 232.03509,44.255262 C232.03509,30.3823869 242.687356,19.5157121 256.294447,19.5157121 C270.447807,19.5157121 279.709568,29.9881312 279.908212,46.2018999 L279.908212,46.9904115 Z M255.847498,28.4111081 C249.650926,28.4100311 244.215623,32.5133729 242.563204,38.4399893 L269.106963,38.4399893 C267.790948,32.2304609 262.700705,28.3125441 255.847498,28.4111081 Z M306.874088,19.5157121 C318.147116,19.5157121 325.720405,27.4008276 325.720405,39.129937 L325.720405,68.2555823 L316.086188,68.2555823 L316.086188,39.5981157 C316.086188,33.0189724 311.691197,28.583595 305.111126,28.583595 C299.452877,28.291255 294.406997,32.0910318 293.167676,37.5775548 L293.167676,68.2555823 L283.558289,68.2555823 L283.558289,20.2549417 L293.167676,20.2549417 L293.167676,24.2960634 C297.289532,20.3781467 302.777063,19.5157121 306.874088,19.5157121 Z M343.672826,52.8056842 C343.672826,57.5121125 345.435789,59.4341094 349.805949,59.4341094 L356.857799,59.4341094 L356.857799,68.2555823 L348.961714,68.2555823 C339.352327,68.2555823 334.038609,63.1795392 334.038609,54.0130925 L334.038609,29.0517737 L326.738454,29.0517737 L324.578204,20.2549417 L334.038609,20.2549417 L334.038609,10.6203162 L343.672826,5.83996494 L343.672826,20.2549417 L358,20.2549417 L355.83975,29.0517737 L343.672826,29.0517737 L343.672826,52.8056842 Z M213.759873,1.13353663 L218.080373,5.34714522 L222.400872,1.13353663 L222.400872,9.83180467 L220.861384,9.83180467 L220.861384,4.48471072 L218.080373,7.21986016 L215.274531,4.48471072 L215.274531,9.83180467 L213.759873,9.83180467 L213.759873,1.13353663 Z M208.470986,2.90768762 L206.211414,2.90768762 L206.211414,1.50315142 L212.344537,1.50315142 L212.344537,2.90768762 L210.035305,2.90768762 L210.035305,9.83180467 L208.470986,9.83180467 L208.470986,2.90768762 Z M7.84089053,24.5178323 C5.09027886,24.6712353 2.48022622,23.3005469 1.06098234,20.9573135 C-0.358261528,18.61408 -0.353315149,15.6836246 1.07383113,13.3451227 C2.5009774,11.0066207 5.11564261,9.64461711 7.86572099,9.80716368 C11.7924515,10.0392576 14.8551922,13.2704586 14.8486031,17.174126 C14.842014,21.0777934 11.7683825,24.2987941 7.84089053,24.5178323 Z M7.84089053,44.4770309 C11.9412219,44.4770309 15.2651973,47.7756423 15.2651973,51.8446857 C15.2651973,55.9137291 11.9412219,59.2123405 7.84089053,59.2123405 C3.74055914,59.2123405 0.416583783,55.9137291 0.416583783,51.8446857 C0.416583783,47.7756423 3.74055914,44.4770309 7.84089053,44.4770309 Z"></path></g></g></g></svg>